# xmcd CD database file
#
# Track frame offsets:
#	150
#	17627
#	38867
#	61639
#	76645
#	91106
#	112134
#	129612
#	148356
#
# Disc length: 2176 seconds
#
# Revision: 0
# Processed by: cddbd v1.5.2PL0 Copyright (c) Steve Scherf et al.
# Submitted via: CDex 1.70beta2
#
DISCID=6f087e09
DTITLE=Tom Buller and Just Plain Trouble - Lesson in the Blues
DYEAR=2008
DGENRE=Country
TTITLE0=The highway is where i want to be
TTITLE1=This heart of mine
TTITLE2=Some things never change
TTITLE3=When I get over you
TTITLE4=Ain't no heart aches here
TTITLE5=Fool enough
TTITLE6=That ain't the truth
TTITLE7=On my mind
TTITLE8=Lesson in the blues
EXTD=YEAR: 2008
EXTT0=
EXTT1=
EXTT2=
EXTT3=
EXTT4=
EXTT5=
EXTT6=
EXTT7=
EXTT8=
PLAYORDER=
